# xmcd
#
# Track frame offsets: 
#        150
#        13209
#        28041
#        39396
#        52594
#        63320
#        82354
#        96590
#        109444
#        121789
#        133139
#        142704
#        155974
#        171277
#        181696
#        199228
#        213797
#        225266
#        240206
#        253586
#
# Disc length: 3532 seconds
#
# Revision: 1
# Processed by: cddbd v1.5.2PL0 Copyright (c) Steve Scherf et al.
# Submitted via: ExactAudioCopy v1.0b3
#
DISCID=0e0dca14
DTITLE=Rogers, Kenny - For The Good Times
DYEAR=2003
DGENRE=Country
TTITLE0=Ruby Don't Take Your Love To Town
TTITLE1=For The Good Times
TTITLE2=Always Leaving, Always Gone
TTITLE3=Shine On Ruby Mountain
TTITLE4=Ticket To Nowhere
TTITLE5=Lay It Down
TTITLE6=Sunshine
TTITLE7=Rueben James
TTITLE8=Elvira
TTITLE9=Me And Bobbie McGee
TTITLE10=Where Does Rosie Go
TTITLE11=I'm Going To Sing A Sad Song Susie
TTITLE12=Tulsa Turnaround
TTITLE13=We All Got To Help Each Other
TTITLE14=Something's Burning
TTITLE15=All God's Lonely Children
TTITLE16=What Am I Gonna Do
TTITLE17=Just Dropped In (To See What Condition My Condition Was In)
TTITLE18=A Stranger In My Place
TTITLE19=A Poem For My Little Lady
EXTD=YEAR: 2003
EXTT0=
EXTT1=
EXTT2=
EXTT3=
EXTT4=
EXTT5=
EXTT6=
EXTT7=
EXTT8=
EXTT9=
EXTT10=
EXTT11=
EXTT12=
EXTT13=
EXTT14=
EXTT15=
EXTT16=
EXTT17=
EXTT18=
EXTT19=
PLAYORDER=
